# Blender v2.81 (sub 16) OBJ File: 'untitled.blend'
# www.blender.org
mtllib tube_corner.mtl
o Цилиндр
v 0.000000 0.005557 -0.288855
v 0.056353 0.005557 -0.283305
v 0.110540 0.005557 -0.266867
v 0.160479 0.005557 -0.240174
v 0.204251 0.005557 -0.204251
v 0.240174 0.005557 -0.160479
v 0.266867 0.005557 -0.110540
v 0.283305 0.005557 -0.056353
v 0.288855 0.005557 -0.000000
v 0.283305 0.005557 0.056353
v 0.266867 0.005557 0.110540
v 0.240174 0.005557 0.160479
v 0.204251 0.005557 0.204251
v 0.160479 0.005557 0.240174
v 0.110540 0.005557 0.266867
v 0.056353 0.005557 0.283305
v -0.000000 0.005557 0.288855
v -0.056353 0.005557 0.283305
v -0.110540 0.005557 0.266867
v -0.160479 0.005557 0.240174
v -0.204251 0.005557 0.204251
v -0.240174 0.005557 0.160479
v -0.266867 0.005557 0.110540
v -0.283305 0.005557 0.056353
v -0.288855 0.005557 -0.000000
v -0.283304 0.005557 -0.056353
v -0.266867 0.005557 -0.110540
v -0.240174 0.005557 -0.160479
v -0.204251 0.005557 -0.204251
v -0.160479 0.005557 -0.240174
v -0.110540 0.005557 -0.266867
v -0.056352 0.005557 -0.283305
v 0.056353 0.187249 -0.283743
v 0.110540 0.195468 -0.269508
v 0.160479 0.208815 -0.246391
v 0.204251 0.226776 -0.215281
v 0.240174 0.248662 -0.177373
v 0.266867 0.273632 -0.134124
v 0.283305 0.300725 -0.087197
v 0.288855 0.328902 -0.038394
v 0.283305 0.357078 0.010409
v 0.266867 0.384172 0.057336
v 0.240174 0.409141 0.100585
v 0.204251 0.431027 0.138493
v 0.160479 0.448989 0.169603
v 0.110540 0.462335 0.192720
v 0.056353 0.470554 0.206955
v -0.000000 0.473329 0.211762
v -0.056353 0.470554 0.206955
v -0.110540 0.462335 0.192720
v -0.160479 0.448989 0.169603
v -0.204251 0.431027 0.138493
v -0.240174 0.409141 0.100585
v -0.266867 0.384171 0.057336
v -0.283305 0.357078 0.010409
v -0.288855 0.328901 -0.038394
v -0.283305 0.300725 -0.087197
v -0.266867 0.273631 -0.134125
v -0.240174 0.248662 -0.177373
v -0.204251 0.226776 -0.215281
v -0.160479 0.208814 -0.246391
v -0.110540 0.195468 -0.269508
v -0.056352 0.187249 -0.283743
v -0.000000 0.184474 -0.288550
v -0.056352 0.184450 -0.283305
v -0.110540 0.184450 -0.266867
v -0.160479 0.184450 -0.240174
v -0.204251 0.184450 -0.204251
v -0.240174 0.184450 -0.160479
v -0.266867 0.184450 -0.110540
v -0.283305 0.184450 -0.056353
v -0.288855 0.184450 -0.000000
v -0.283305 0.184450 0.056353
v -0.266867 0.184450 0.110540
v -0.240174 0.184450 0.160479
v -0.204251 0.184450 0.204251
v -0.160479 0.184450 0.240174
v -0.110540 0.184450 0.266867
v -0.056353 0.184450 0.283305
v -0.000000 0.184450 0.288855
v 0.056353 0.184450 0.283305
v 0.110540 0.184450 0.266867
v 0.160479 0.184450 0.240174
v 0.204251 0.184450 0.204251
v 0.240174 0.184450 0.160479
v 0.266867 0.184450 0.110540
v 0.283305 0.184450 0.056353
v 0.288855 0.184450 -0.000000
v 0.283305 0.184450 -0.056353
v 0.266867 0.184450 -0.110540
v 0.240174 0.184450 -0.160479
v 0.204251 0.184450 -0.204251
v 0.160479 0.184450 -0.240174
v 0.110540 0.184450 -0.266867
v -0.000000 0.184450 -0.288855
v 0.056353 0.184450 -0.283305
v 0.056353 0.190231 -0.285697
v -0.000000 0.185425 -0.288472
v 0.110540 0.204467 -0.277478
v 0.160479 0.227584 -0.264132
v 0.204251 0.258694 -0.246170
v 0.240174 0.296601 -0.224284
v 0.266867 0.339850 -0.199315
v 0.283305 0.386777 -0.172221
v 0.288855 0.435580 -0.144045
v 0.283305 0.484383 -0.115868
v 0.266867 0.531311 -0.088775
v 0.240174 0.574559 -0.063805
v 0.204251 0.612467 -0.041919
v 0.160479 0.643577 -0.023958
v 0.110540 0.666694 -0.010611
v 0.056353 0.680929 -0.002392
v -0.000000 0.685736 0.000383
v -0.056353 0.680929 -0.002392
v -0.110540 0.666694 -0.010611
v -0.160479 0.643577 -0.023958
v -0.204251 0.612467 -0.041919
v -0.240174 0.574559 -0.063805
v -0.266867 0.531311 -0.088775
v -0.283305 0.484383 -0.115868
v -0.288855 0.435580 -0.144045
v -0.283305 0.386777 -0.172221
v -0.266867 0.339850 -0.199315
v -0.240174 0.296601 -0.224284
v -0.204251 0.258693 -0.246170
v -0.160479 0.227583 -0.264132
v -0.110540 0.204467 -0.277478
v -0.056352 0.190231 -0.285697
v 0.056353 0.188322 -0.289818
v -0.000000 0.182772 -0.289818
v 0.110540 0.204760 -0.289818
v 0.160479 0.231453 -0.289818
v 0.204251 0.267376 -0.289818
v 0.240174 0.311148 -0.289818
v 0.266867 0.361087 -0.289818
v 0.283305 0.415274 -0.289818
v 0.288855 0.471627 -0.289818
v 0.283305 0.527980 -0.289818
v 0.266867 0.582167 -0.289818
v 0.240174 0.632106 -0.289818
v 0.204251 0.675878 -0.289818
v 0.160479 0.711801 -0.289818
v 0.110540 0.738494 -0.289818
v 0.056353 0.754932 -0.289818
v -0.000000 0.760482 -0.289818
v -0.056353 0.754932 -0.289818
v -0.110540 0.738494 -0.289818
v -0.160479 0.711801 -0.289818
v -0.204251 0.675878 -0.289818
v -0.240174 0.632106 -0.289818
v -0.266867 0.582167 -0.289818
v -0.283305 0.527980 -0.289818
v -0.288855 0.471627 -0.289818
v -0.283305 0.415274 -0.289818
v -0.266867 0.361087 -0.289818
v -0.240174 0.311148 -0.289818
v -0.204251 0.267376 -0.289818
v -0.160479 0.231453 -0.289818
v -0.110540 0.204760 -0.289818
v -0.056352 0.188322 -0.289818
v 0.056353 0.188322 -0.466736
v -0.000000 0.182772 -0.466736
v 0.110540 0.204760 -0.466736
v 0.160479 0.231453 -0.466736
v 0.204251 0.267376 -0.466736
v 0.240174 0.311148 -0.466736
v 0.266867 0.361087 -0.466736
v 0.283305 0.415274 -0.466736
v 0.288855 0.471627 -0.466736
v 0.283305 0.527980 -0.466736
v 0.266867 0.582167 -0.466736
v 0.240174 0.632106 -0.466736
v 0.204251 0.675878 -0.466736
v 0.160479 0.711801 -0.466736
v 0.110540 0.738494 -0.466736
v 0.056353 0.754932 -0.466736
v -0.000000 0.760482 -0.466736
v -0.056353 0.754932 -0.466736
v -0.110540 0.738494 -0.466736
v -0.160479 0.711801 -0.466736
v -0.204251 0.675878 -0.466736
v -0.240174 0.632106 -0.466736
v -0.266867 0.582167 -0.466736
v -0.283305 0.527980 -0.466736
v -0.288855 0.471627 -0.466736
v -0.283305 0.415274 -0.466736
v -0.266867 0.361087 -0.466736
v -0.240174 0.311148 -0.466736
v -0.204251 0.267376 -0.466736
v -0.160479 0.231453 -0.466736
v -0.110540 0.204760 -0.466736
v -0.056352 0.188322 -0.466736
vt 0.296822 0.014612
vt 0.341844 0.028269
vt 0.341844 0.028269
vt 0.296822 0.014612
vt 0.341844 0.471731
vt 0.296822 0.485388
vt 0.296822 0.485388
vt 0.341844 0.471731
vt 0.116663 0.449553
vt 0.080295 0.419706
vt 0.080295 0.419706
vt 0.116663 0.449553
vt 0.250000 0.010000
vt 0.250000 0.010000
vt 0.383337 0.449553
vt 0.383337 0.449553
vt 0.158156 0.471731
vt 0.158156 0.471731
vt 0.203178 0.014612
vt 0.203178 0.014612
vt 0.419706 0.419706
vt 0.419706 0.419706
vt 0.203179 0.485389
vt 0.203179 0.485389
vt 0.158156 0.028269
vt 0.158156 0.028269
vt 0.449553 0.383337
vt 0.449553 0.383337
vt 0.250000 0.490000
vt 0.250000 0.490000
vt 0.116663 0.050447
vt 0.116663 0.050447
vt 0.471731 0.341844
vt 0.471731 0.341844
vt 0.080294 0.080294
vt 0.080294 0.080294
vt 0.485388 0.296822
vt 0.485388 0.296822
vt 0.050447 0.116663
vt 0.050447 0.116663
vt 0.490000 0.250000
vt 0.490000 0.250000
vt 0.028269 0.158156
vt 0.028269 0.158156
vt 0.485388 0.203178
vt 0.485388 0.203178
vt 0.014611 0.203179
vt 0.014611 0.203179
vt 0.471731 0.158156
vt 0.471731 0.158156
vt 0.010000 0.250000
vt 0.010000 0.250000
vt 0.449553 0.116663
vt 0.449553 0.116663
vt 0.014612 0.296822
vt 0.014612 0.296822
vt 0.419706 0.080294
vt 0.419706 0.080294
vt 0.028269 0.341844
vt 0.028269 0.341844
vt 0.383337 0.050447
vt 0.383337 0.050447
vt 0.296822 0.485388
vt 0.341844 0.471731
vt 0.383337 0.449553
vt 0.419706 0.419706
vt 0.449553 0.383337
vt 0.471731 0.341844
vt 0.485388 0.296822
vt 0.490000 0.250000
vt 0.485388 0.203178
vt 0.471731 0.158156
vt 0.449553 0.116663
vt 0.419706 0.080294
vt 0.383337 0.050447
vt 0.341844 0.028269
vt 0.296822 0.014612
vt 0.250000 0.010000
vt 0.203178 0.014612
vt 0.158156 0.028269
vt 0.116663 0.050447
vt 0.080294 0.080294
vt 0.050447 0.116663
vt 0.028269 0.158156
vt 0.014611 0.203179
vt 0.010000 0.250000
vt 0.014612 0.296822
vt 0.028269 0.341844
vt 0.050447 0.383337
vt 0.080295 0.419706
vt 0.116663 0.449553
vt 0.158156 0.471731
vt 0.203179 0.485389
vt 0.250000 0.490000
vt 0.050447 0.383337
vt 0.050447 0.383337
vt 0.449553 0.383337
vt 0.471731 0.341844
vt 0.203178 0.014612
vt 0.250000 0.010000
vt 0.250000 0.010000
vt 0.203178 0.014612
vt 0.116663 0.050447
vt 0.080294 0.080294
vt 0.485388 0.296822
vt 0.050447 0.116663
vt 0.490000 0.250000
vt 0.028269 0.158156
vt 0.485388 0.203178
vt 0.014611 0.203179
vt 0.471731 0.158156
vt 0.010000 0.250000
vt 0.449553 0.116663
vt 0.014612 0.296822
vt 0.419706 0.080294
vt 0.028269 0.341844
vt 0.383337 0.050447
vt 0.050447 0.383337
vt 0.341844 0.028269
vt 0.250000 0.490000
vt 0.296822 0.485388
vt 0.080295 0.419706
vt 0.296822 0.014612
vt 0.341844 0.471731
vt 0.116663 0.449553
vt 0.383337 0.449553
vt 0.158156 0.471731
vt 0.419706 0.419706
vt 0.203179 0.485389
vt 0.158156 0.028269
vt 0.080294 0.080294
vt 0.116663 0.050447
vt 0.116663 0.050447
vt 0.080294 0.080294
vt 0.383337 0.449553
vt 0.419706 0.419706
vt 0.158156 0.471731
vt 0.203179 0.485389
vt 0.158156 0.028269
vt 0.449553 0.383337
vt 0.250000 0.490000
vt 0.471731 0.341844
vt 0.485388 0.296822
vt 0.050447 0.116663
vt 0.490000 0.250000
vt 0.028269 0.158156
vt 0.485388 0.203178
vt 0.014611 0.203179
vt 0.471731 0.158156
vt 0.010000 0.250000
vt 0.449553 0.116663
vt 0.014612 0.296822
vt 0.419706 0.080294
vt 0.028269 0.341844
vt 0.383337 0.050447
vt 0.050447 0.383337
vt 0.341844 0.028269
vt 0.296822 0.485388
vt 0.080295 0.419706
vt 0.296822 0.014612
vt 0.341844 0.471731
vt 0.116663 0.449553
vt 0.296822 0.485388
vt 0.250000 0.490000
vt 0.203179 0.485389
vt 0.158156 0.471731
vt 0.116663 0.449553
vt 0.080295 0.419706
vt 0.050447 0.383337
vt 0.028269 0.341844
vt 0.014612 0.296822
vt 0.010000 0.250000
vt 0.014611 0.203179
vt 0.028269 0.158156
vt 0.050447 0.116663
vt 0.158156 0.028269
vt 0.203178 0.014612
vt 0.250000 0.010000
vt 0.296822 0.014612
vt 0.341844 0.028269
vt 0.383337 0.050447
vt 0.419706 0.080294
vt 0.449553 0.116663
vt 0.471731 0.158156
vt 0.485388 0.203178
vt 0.490000 0.250000
vt 0.485388 0.296822
vt 0.471731 0.341844
vt 0.449553 0.383337
vt 0.419706 0.419706
vt 0.383337 0.449553
vt 0.341844 0.471731
vn 0.2812 0.2474 0.9272
vn 0.2810 -0.2087 -0.9367
vn -0.6212 -0.1962 -0.7587
vn 0.0947 0.2567 0.9618
vn 0.4587 -0.2158 -0.8620
vn -0.4587 -0.2158 -0.8620
vn -0.0947 0.2567 0.9618
vn 0.6212 -0.1962 -0.7587
vn -0.2810 -0.2087 -0.9367
vn -0.2812 0.2474 0.9272
vn 0.7621 -0.1642 -0.6263
vn -0.0926 -0.0469 -0.9946
vn -0.4588 0.2291 0.8585
vn 0.8750 -0.1235 -0.4682
vn -0.6212 0.2020 0.7572
vn 0.9541 -0.0767 -0.2896
vn -0.7621 0.1668 0.6256
vn 0.9948 -0.0260 -0.0980
vn -0.8750 0.1247 0.4679
vn 0.9948 0.0261 0.0980
vn -0.9541 0.0771 0.2895
vn 0.9541 0.0771 0.2895
vn -0.9948 0.0261 0.0980
vn 0.8750 0.1247 0.4679
vn -0.9948 -0.0260 -0.0980
vn 0.7621 0.1668 0.6256
vn -0.9541 -0.0767 -0.2896
vn 0.6212 0.2020 0.7572
vn 0.0000 -1.0000 0.0000
vn -0.8750 -0.1235 -0.4682
vn 0.4588 0.2291 0.8585
vn 0.0926 -0.0469 -0.9946
vn 0.8750 -0.3393 -0.3455
vn -0.7730 0.0000 -0.6344
vn -0.4714 -0.0000 0.8819
vn 0.9569 0.0000 0.2903
vn -0.0980 -0.0000 -0.9952
vn 0.0980 0.0000 -0.9952
vn -0.9569 0.0000 0.2903
vn 0.4714 0.0000 0.8819
vn 0.7730 0.0000 -0.6344
vn -0.8819 0.0000 -0.4714
vn -0.2903 -0.0000 0.9569
vn 0.9952 0.0000 0.0980
vn -0.2903 -0.0000 -0.9569
vn -0.8819 -0.0000 0.4714
vn 0.6344 0.0000 0.7730
vn 0.6344 0.0000 -0.7730
vn -0.9569 -0.0000 -0.2903
vn -0.0980 -0.0000 0.9952
vn 0.9952 0.0000 -0.0980
vn -0.4714 0.0000 -0.8819
vn -0.7730 0.0000 0.6344
vn 0.7730 0.0000 0.6344
vn 0.4714 0.0000 -0.8819
vn -0.9952 0.0000 -0.0980
vn 0.0980 0.0000 0.9952
vn 0.9569 0.0000 -0.2903
vn -0.6344 0.0000 -0.7730
vn -0.6344 -0.0000 0.7730
vn 0.8819 0.0000 0.4714
vn 0.2903 0.0000 -0.9569
vn -0.9952 0.0000 0.0980
vn 0.2903 0.0000 0.9569
vn 0.8819 0.0000 -0.4714
vn -0.7621 -0.1642 -0.6263
vn -0.0947 0.9641 0.2483
vn -0.6212 0.5526 0.5556
vn 0.9541 -0.2104 -0.2133
vn -0.7621 0.4565 0.4592
vn 0.9948 -0.0713 -0.0721
vn -0.8750 0.3412 0.3435
vn 0.9948 0.0714 0.0720
vn -0.9541 0.2111 0.2127
vn 0.9541 0.2111 0.2127
vn -0.9948 0.0714 0.0720
vn 0.8750 0.3412 0.3435
vn -0.9948 -0.0713 -0.0721
vn 0.7621 0.4565 0.4592
vn -0.9541 -0.2104 -0.2133
vn 0.6212 0.5526 0.5556
vn -0.8750 -0.3393 -0.3455
vn 0.4588 0.6267 0.6299
vn 0.0893 -0.4289 -0.8989
vn -0.7621 -0.4519 -0.4638
vn 0.2812 0.6769 0.6803
vn 0.2801 -0.6124 -0.7393
vn -0.6211 -0.5426 -0.5655
vn 0.0947 0.7022 0.7056
vn 0.4585 -0.6038 -0.6521
vn -0.4585 -0.6038 -0.6521
vn -0.0947 0.7022 0.7056
vn 0.6211 -0.5426 -0.5655
vn -0.2801 -0.6124 -0.7393
vn -0.2812 0.6769 0.6803
vn 0.7621 -0.4519 -0.4638
vn -0.0893 -0.4289 -0.8989
vn -0.4588 0.6267 0.6299
vn -0.6344 0.7730 0.0000
vn 0.6199 -0.7721 -0.1398
vn -0.2645 -0.9598 0.0942
vn -0.2812 0.9294 0.2391
vn 0.7616 -0.6338 -0.1348
vn -0.0547 -0.7667 0.6397
vn -0.4587 0.8606 0.2211
vn 0.8748 -0.4722 -0.1083
vn -0.6212 0.7591 0.1945
vn 0.9540 -0.2915 -0.0697
vn -0.7621 0.6274 0.1601
vn 0.9948 -0.0985 -0.0242
vn -0.8750 0.4693 0.1191
vn 0.9948 0.0984 0.0245
vn -0.9540 0.2906 0.0732
vn 0.9540 0.2906 0.0732
vn -0.9948 0.0984 0.0245
vn 0.8750 0.4693 0.1191
vn -0.9948 -0.0985 -0.0242
vn 0.7621 0.6274 0.1601
vn -0.9540 -0.2915 -0.0697
vn 0.6212 0.7591 0.1945
vn -0.8748 -0.4722 -0.1083
vn 0.4587 0.8606 0.2211
vn 0.0547 -0.7667 0.6397
vn -0.7616 -0.6338 -0.1348
vn 0.2812 0.9294 0.2391
vn 0.2645 -0.9598 0.0942
vn -0.6199 -0.7721 -0.1398
vn 0.0947 0.9641 0.2483
vn 0.4545 -0.8854 -0.0969
vn -0.4545 -0.8854 -0.0969
vn 0.0000 -0.0000 -1.0000
vn 0.9569 -0.2903 0.0000
vn -0.7730 0.6344 0.0000
vn 0.9952 -0.0980 0.0000
vn -0.8819 0.4714 0.0000
vn 0.9952 0.0980 0.0000
vn -0.9569 0.2903 0.0000
vn 0.9569 0.2903 0.0000
vn -0.9952 0.0980 0.0000
vn 0.8819 0.4714 0.0000
vn -0.9952 -0.0980 0.0000
vn 0.7730 0.6344 0.0000
vn -0.9569 -0.2903 0.0000
vn 0.6344 0.7730 0.0000
vn -0.8819 -0.4714 0.0000
vn 0.4714 0.8819 0.0000
vn 0.0980 -0.9952 0.0000
vn -0.7730 -0.6344 0.0000
vn 0.2903 0.9569 0.0000
vn 0.2903 -0.9569 0.0000
vn -0.6344 -0.7730 0.0000
vn 0.0980 0.9952 -0.0000
vn 0.4714 -0.8819 0.0000
vn -0.4714 -0.8819 0.0000
vn -0.0980 0.9952 0.0000
vn 0.6344 -0.7730 0.0000
vn -0.2903 -0.9569 0.0000
vn -0.2903 0.9569 0.0000
vn 0.7730 -0.6344 0.0000
vn -0.0980 -0.9952 0.0000
vn -0.4714 0.8819 0.0000
vn 0.8819 -0.4714 0.0000
usemtl Material
s off
f 81/1/1 82/2/1 46/3/1 47/4/1
f 94/5/2 96/6/2 33/7/2 34/8/2
f 67/9/3 68/10/3 60/11/3 61/12/3
f 80/13/4 81/1/4 47/4/4 48/14/4
f 93/15/5 94/5/5 34/8/5 35/16/5
f 66/17/6 67/9/6 61/12/6 62/18/6
f 79/19/7 80/13/7 48/14/7 49/20/7
f 92/21/8 93/15/8 35/16/8 36/22/8
f 65/23/9 66/17/9 62/18/9 63/24/9
f 78/25/10 79/19/10 49/20/10 50/26/10
f 91/27/11 92/21/11 36/22/11 37/28/11
f 95/29/12 65/23/12 63/24/12 64/30/12
f 77/31/13 78/25/13 50/26/13 51/32/13
f 90/33/14 91/27/14 37/28/14 38/34/14
f 76/35/15 77/31/15 51/32/15 52/36/15
f 89/37/16 90/33/16 38/34/16 39/38/16
f 75/39/17 76/35/17 52/36/17 53/40/17
f 88/41/18 89/37/18 39/38/18 40/42/18
f 74/43/19 75/39/19 53/40/19 54/44/19
f 87/45/20 88/41/20 40/42/20 41/46/20
f 73/47/21 74/43/21 54/44/21 55/48/21
f 86/49/22 87/45/22 41/46/22 42/50/22
f 72/51/23 73/47/23 55/48/23 56/52/23
f 85/53/24 86/49/24 42/50/24 43/54/24
f 71/55/25 72/51/25 56/52/25 57/56/25
f 84/57/26 85/53/26 43/54/26 44/58/26
f 70/59/27 71/55/27 57/56/27 58/60/27
f 83/61/28 84/57/28 44/58/28 45/62/28
f 2/63/29 3/64/29 4/65/29 5/66/29 6/67/29 7/68/29 8/69/29 9/70/29 10/71/29 11/72/29 12/73/29 13/74/29 14/75/29 15/76/29 16/77/29 17/78/29 18/79/29 19/80/29 20/81/29 21/82/29 22/83/29 23/84/29 24/85/29 25/86/29 26/87/29 27/88/29 28/89/29 29/90/29 30/91/29 31/92/29 32/93/29 1/94/29
f 69/95/30 70/59/30 58/60/30 59/96/30
f 82/2/31 83/61/31 45/62/31 46/3/31
f 96/6/32 95/29/32 64/30/32 33/7/32
f 38/34/33 37/28/33 102/97/33 103/98/33
f 29/90/34 28/89/34 69/95/34 68/10/34
f 20/81/35 19/80/35 78/25/35 77/31/35
f 11/72/36 10/71/36 87/45/36 86/49/36
f 1/94/37 32/93/37 65/23/37 95/29/37
f 2/63/38 1/94/38 95/29/38 96/6/38
f 24/85/39 23/84/39 74/43/39 73/47/39
f 15/76/40 14/75/40 83/61/40 82/2/40
f 6/67/41 5/66/41 92/21/41 91/27/41
f 28/89/42 27/88/42 70/59/42 69/95/42
f 19/80/43 18/79/43 79/19/43 78/25/43
f 10/71/44 9/70/44 88/41/44 87/45/44
f 32/93/45 31/92/45 66/17/45 65/23/45
f 23/84/46 22/83/46 75/39/46 74/43/46
f 14/75/47 13/74/47 84/57/47 83/61/47
f 5/66/48 4/65/48 93/15/48 92/21/48
f 27/88/49 26/87/49 71/55/49 70/59/49
f 18/79/50 17/78/50 80/13/50 79/19/50
f 9/70/51 8/69/51 89/37/51 88/41/51
f 31/92/52 30/91/52 67/9/52 66/17/52
f 22/83/53 21/82/53 76/35/53 75/39/53
f 13/74/54 12/73/54 85/53/54 84/57/54
f 4/65/55 3/64/55 94/5/55 93/15/55
f 26/87/56 25/86/56 72/51/56 71/55/56
f 17/78/57 16/77/57 81/1/57 80/13/57
f 8/69/58 7/68/58 90/33/58 89/37/58
f 30/91/59 29/90/59 68/10/59 67/9/59
f 21/82/60 20/81/60 77/31/60 76/35/60
f 12/73/61 11/72/61 86/49/61 85/53/61
f 3/64/62 2/63/62 96/6/62 94/5/62
f 25/86/63 24/85/63 73/47/63 72/51/63
f 16/77/64 15/76/64 82/2/64 81/1/64
f 7/68/65 6/67/65 91/27/65 90/33/65
f 68/10/66 69/95/66 59/96/66 60/11/66
f 114/99/67 113/100/67 145/101/67 146/102/67
f 52/36/68 51/32/68 116/103/68 117/104/68
f 39/38/69 38/34/69 103/98/69 104/105/69
f 53/40/70 52/36/70 117/104/70 118/106/70
f 40/42/71 39/38/71 104/105/71 105/107/71
f 54/44/72 53/40/72 118/106/72 119/108/72
f 41/46/73 40/42/73 105/107/73 106/109/73
f 55/48/74 54/44/74 119/108/74 120/110/74
f 42/50/75 41/46/75 106/109/75 107/111/75
f 56/52/76 55/48/76 120/110/76 121/112/76
f 43/54/77 42/50/77 107/111/77 108/113/77
f 57/56/78 56/52/78 121/112/78 122/114/78
f 44/58/79 43/54/79 108/113/79 109/115/79
f 58/60/80 57/56/80 122/114/80 123/116/80
f 45/62/81 44/58/81 109/115/81 110/117/81
f 59/96/82 58/60/82 123/116/82 124/118/82
f 46/3/83 45/62/83 110/117/83 111/119/83
f 33/7/84 64/30/84 98/120/84 97/121/84
f 60/11/85 59/96/85 124/118/85 125/122/85
f 47/4/86 46/3/86 111/119/86 112/123/86
f 34/8/87 33/7/87 97/121/87 99/124/87
f 61/12/88 60/11/88 125/122/88 126/125/88
f 48/14/89 47/4/89 112/123/89 113/100/89
f 35/16/90 34/8/90 99/124/90 100/126/90
f 62/18/91 61/12/91 126/125/91 127/127/91
f 49/20/92 48/14/92 113/100/92 114/99/92
f 36/22/93 35/16/93 100/126/93 101/128/93
f 63/24/94 62/18/94 127/127/94 128/129/94
f 50/26/95 49/20/95 114/99/95 115/130/95
f 37/28/96 36/22/96 101/128/96 102/97/96
f 64/30/97 63/24/97 128/129/97 98/120/97
f 51/32/98 50/26/98 115/130/98 116/103/98
f 149/131/99 148/132/99 180/133/99 181/134/99
f 101/128/100 100/126/100 132/135/100 133/136/100
f 128/129/101 127/127/101 159/137/101 160/138/101
f 115/130/102 114/99/102 146/102/102 147/139/102
f 102/97/103 101/128/103 133/136/103 134/140/103
f 98/120/104 128/129/104 160/138/104 130/141/104
f 116/103/105 115/130/105 147/139/105 148/132/105
f 103/98/106 102/97/106 134/140/106 135/142/106
f 117/104/107 116/103/107 148/132/107 149/131/107
f 104/105/108 103/98/108 135/142/108 136/143/108
f 118/106/109 117/104/109 149/131/109 150/144/109
f 105/107/110 104/105/110 136/143/110 137/145/110
f 119/108/111 118/106/111 150/144/111 151/146/111
f 106/109/112 105/107/112 137/145/112 138/147/112
f 120/110/113 119/108/113 151/146/113 152/148/113
f 107/111/114 106/109/114 138/147/114 139/149/114
f 121/112/115 120/110/115 152/148/115 153/150/115
f 108/113/116 107/111/116 139/149/116 140/151/116
f 122/114/117 121/112/117 153/150/117 154/152/117
f 109/115/118 108/113/118 140/151/118 141/153/118
f 123/116/119 122/114/119 154/152/119 155/154/119
f 110/117/120 109/115/120 141/153/120 142/155/120
f 124/118/121 123/116/121 155/154/121 156/156/121
f 111/119/122 110/117/122 142/155/122 143/157/122
f 97/121/123 98/120/123 130/141/123 129/158/123
f 125/122/124 124/118/124 156/156/124 157/159/124
f 112/123/125 111/119/125 143/157/125 144/160/125
f 99/124/126 97/121/126 129/158/126 131/161/126
f 126/125/127 125/122/127 157/159/127 158/162/127
f 113/100/128 112/123/128 144/160/128 145/101/128
f 100/126/129 99/124/129 131/161/129 132/135/129
f 127/127/130 126/125/130 158/162/130 159/137/130
f 161/163/131 162/164/131 192/165/131 191/166/131 190/167/131 189/168/131 188/169/131 187/170/131 186/171/131 185/172/131 184/173/131 183/174/131 182/175/131 181/134/131 180/133/131 179/176/131 178/177/131 177/178/131 176/179/131 175/180/131 174/181/131 173/182/131 172/183/131 171/184/131 170/185/131 169/186/131 168/187/131 167/188/131 166/189/131 165/190/131 164/191/131 163/192/131
f 136/143/132 135/142/132 167/188/132 168/187/132
f 150/144/133 149/131/133 181/134/133 182/175/133
f 137/145/134 136/143/134 168/187/134 169/186/134
f 151/146/135 150/144/135 182/175/135 183/174/135
f 138/147/136 137/145/136 169/186/136 170/185/136
f 152/148/137 151/146/137 183/174/137 184/173/137
f 139/149/138 138/147/138 170/185/138 171/184/138
f 153/150/139 152/148/139 184/173/139 185/172/139
f 140/151/140 139/149/140 171/184/140 172/183/140
f 154/152/141 153/150/141 185/172/141 186/171/141
f 141/153/142 140/151/142 172/183/142 173/182/142
f 155/154/143 154/152/143 186/171/143 187/170/143
f 142/155/144 141/153/144 173/182/144 174/181/144
f 156/156/145 155/154/145 187/170/145 188/169/145
f 143/157/146 142/155/146 174/181/146 175/180/146
f 129/158/147 130/141/147 162/164/147 161/163/147
f 157/159/148 156/156/148 188/169/148 189/168/148
f 144/160/149 143/157/149 175/180/149 176/179/149
f 131/161/150 129/158/150 161/163/150 163/192/150
f 158/162/151 157/159/151 189/168/151 190/167/151
f 145/101/152 144/160/152 176/179/152 177/178/152
f 132/135/153 131/161/153 163/192/153 164/191/153
f 159/137/154 158/162/154 190/167/154 191/166/154
f 146/102/155 145/101/155 177/178/155 178/177/155
f 133/136/156 132/135/156 164/191/156 165/190/156
f 160/138/157 159/137/157 191/166/157 192/165/157
f 147/139/158 146/102/158 178/177/158 179/176/158
f 134/140/159 133/136/159 165/190/159 166/189/159
f 130/141/160 160/138/160 192/165/160 162/164/160
f 148/132/161 147/139/161 179/176/161 180/133/161
f 135/142/162 134/140/162 166/189/162 167/188/162
