# Blender v2.81 (sub 16) OBJ File: 'untitled.blend'
# www.blender.org
mtllib shard_detween_walls.mtl
o Икосфера
v -0.117491 3.790916 -2.496790
v 0.144223 3.990846 -0.919277
v -0.217455 3.990846 0.055703
v -0.440987 3.990847 -2.496790
v -0.258104 3.929316 -4.523561
v 0.144223 3.990846 -4.074302
v -0.017527 4.314347 0.055703
v -0.379206 4.314347 -0.919277
v -0.369052 4.264281 -3.861111
v -0.017527 4.314347 -5.049282
v 0.206005 4.314345 -2.496790
v -0.117491 4.514277 -2.496790
v -0.176248 3.844932 -0.996484
v 0.036339 3.844932 -1.569558
v -0.022417 3.962447 -0.069237
v 0.189884 3.893908 -2.536122
v 0.036339 3.844932 -3.424021
v -0.307637 3.844933 -2.496790
v -0.366396 3.962448 -0.996479
v -0.176248 3.844932 -3.997097
v -0.336651 3.916728 -3.998375
v -0.022417 3.962447 -4.924342
v 0.378787 4.152596 -1.569554
v 0.171733 4.150985 -4.114459
v -0.274946 3.983008 1.334358
v 0.021177 4.037629 0.338450
v -0.407770 3.983783 -1.351443
v -0.330082 4.152596 -0.069221
v -0.364632 4.149387 -4.537925
v -0.461470 4.152596 -3.424026
v 0.095099 4.152596 -4.924358
v -0.079620 4.160551 -5.920237
v 0.179681 4.260179 -1.083271
v -0.212566 4.342745 -0.069237
v -0.513297 4.357574 -2.530367
v -0.212566 4.342745 -4.924342
v 0.131413 4.342745 -3.997101
v -0.058734 4.460261 -0.996484
v 0.024254 4.518942 -2.593414
v -0.160179 4.455085 -1.259460
v -0.200906 4.479696 -3.443645
v -0.078346 4.515434 -4.085024
v 1.090023 5.755832 -0.620347
v 1.090023 0.587874 -0.620347
v 1.090023 5.755832 -0.467753
v 1.090023 0.587874 -0.467753
v -1.090023 5.755832 -0.620347
v -1.090023 0.587874 -0.620347
v -1.090023 5.755832 -0.467753
v -1.090023 0.587874 -0.467753
v 1.090023 4.888148 -1.739557
v 1.090023 0.587874 -1.739557
v 1.090023 4.888148 -1.586962
v 1.090023 0.587874 -1.586962
v -1.090023 4.888148 -1.739557
v -1.090023 0.587874 -1.739557
v -1.090023 4.888148 -1.586962
v -1.090023 0.587874 -1.586962
vt 0.818181 0.000000
vt 0.772726 0.078731
vt 0.863635 0.078731
vt 0.727272 0.157461
vt 0.681818 0.078731
vt 0.636363 0.157461
vt 0.090909 0.000000
vt 0.045454 0.078731
vt 0.136363 0.078731
vt 0.272727 0.000000
vt 0.227273 0.078731
vt 0.318182 0.078731
vt 0.454545 0.000000
vt 0.409090 0.078731
vt 0.500000 0.078731
vt 0.681818 0.236191
vt 0.909090 0.157461
vt 0.818181 0.157461
vt 0.863635 0.236191
vt 0.181818 0.157461
vt 0.090909 0.157461
vt 0.136363 0.236191
vt 0.363636 0.157461
vt 0.272727 0.157461
vt 0.318182 0.236191
vt 0.545454 0.157461
vt 0.454545 0.157461
vt 0.500000 0.236191
vt 0.772726 0.236191
vt 0.954545 0.236191
vt 0.227273 0.236191
vt 0.409090 0.236191
vt 0.590909 0.236191
vt 0.818181 0.314921
vt 0.727272 0.314921
vt 0.772726 0.393651
vt 1.000000 0.314921
vt 0.909091 0.314921
vt 0.954545 0.393651
vt 0.272727 0.314921
vt 0.181818 0.314921
vt 0.227273 0.393651
vt 0.454545 0.314921
vt 0.363636 0.314921
vt 0.409090 0.393651
vt 0.636363 0.314921
vt 0.545454 0.314921
vt 0.590909 0.393651
vt 0.500000 0.393651
vt 0.545454 0.472382
vt 0.318182 0.393651
vt 0.363636 0.472382
vt 0.136363 0.393651
vt 0.181818 0.472382
vt 0.090909 0.314921
vt 0.863635 0.393651
vt 0.909090 0.472382
vt 0.681818 0.393651
vt 0.727272 0.472382
vt 0.045454 0.236191
vt 0.000000 0.157461
vt 0.590909 0.078731
vt 0.636363 0.000000
vt 0.000000 0.000000
vt 0.000000 0.000000
vt 0.000000 0.000000
vt 0.000000 0.000000
vt 0.000000 0.000000
vt 0.000000 0.000000
vt 0.000000 0.000000
vt 0.000000 0.000000
vt 0.000000 0.000000
vt 0.000000 0.000000
vt 0.000000 0.000000
vt 0.000000 0.000000
vt 0.000000 0.000000
vt 0.000000 0.000000
vt 0.000000 0.000000
vt 0.000000 0.000000
vn 0.1078 -0.9934 0.0400
vn 0.6450 -0.7615 0.0639
vn -0.2732 -0.9617 0.0239
vn -0.2732 -0.9617 -0.0239
vn 0.1078 -0.9934 -0.0400
vn 0.6791 -0.7314 0.0630
vn -0.1522 -0.9883 -0.0129
vn -0.5245 -0.8514 0.0100
vn -0.8871 -0.4388 -0.1432
vn 0.8413 -0.5200 -0.1476
vn 0.7327 -0.6736 0.0967
vn -0.8053 -0.5915 -0.0398
vn -0.9987 0.0410 0.0292
vn -0.8798 -0.4379 -0.1849
vn 0.9772 -0.1911 -0.0928
vn 0.6574 0.7495 0.0782
vn -0.4690 0.8810 0.0625
vn -0.6524 0.7478 -0.1231
vn 0.0123 0.9790 -0.2034
vn 0.7532 0.6573 -0.0250
vn -0.0330 0.9995 -0.0001
vn 0.6464 0.7616 -0.0463
vn 0.6594 0.7432 -0.1134
vn -0.3137 0.9495 -0.0070
vn -0.5960 0.8000 -0.0693
vn -0.7302 0.6809 -0.0572
vn -0.5668 0.8236 0.0198
vn -0.3214 0.9468 0.0167
vn -0.4688 0.8811 0.0627
vn -0.1585 0.9865 0.0417
vn -0.2557 0.9635 0.0797
vn 0.0576 0.9892 0.1349
vn -0.0081 0.9993 0.0363
vn 0.6547 0.7534 0.0617
vn 0.7377 0.6740 0.0396
vn 0.9719 0.2312 -0.0439
vn 0.9620 0.2577 -0.0905
vn 0.8590 0.4939 -0.1349
vn 0.0306 0.9839 -0.1759
vn -0.9182 0.3494 -0.1865
vn -0.8624 0.4980 -0.0902
vn -0.9461 0.2994 -0.1235
vn -0.9654 -0.2606 0.0038
vn -0.9964 -0.0216 0.0823
vn -0.8413 0.5200 0.1476
vn -0.8467 0.5233 0.0965
vn -0.0175 0.9687 0.2475
vn 0.9464 0.2859 0.1503
vn 0.7721 0.6090 0.1814
vn 0.5527 0.8323 0.0422
vn 0.8614 0.4861 -0.1472
vn 0.8408 -0.5197 -0.1517
vn -0.1743 -0.9676 -0.1825
vn -0.8980 0.4327 -0.0793
vn -0.9493 -0.3035 -0.0817
vn -0.9246 -0.3783 -0.0456
vn -0.9982 0.0087 0.0593
vn -0.9556 -0.2789 0.0946
vn -0.8590 -0.4939 0.1349
vn 0.8686 0.4083 0.2807
vn 0.5066 -0.8559 0.1037
vn 0.5815 -0.8089 0.0870
vn 0.8555 0.5130 -0.0699
vn 0.9170 -0.3918 -0.0744
vn 0.9830 -0.1790 -0.0405
vn 0.5780 -0.8115 -0.0862
vn 0.2289 -0.9697 -0.0849
vn -0.1028 -0.9845 -0.1418
vn -0.4066 -0.9099 -0.0826
vn -0.4080 -0.9123 -0.0357
vn -0.7381 -0.6745 -0.0180
vn -0.7380 -0.6744 0.0239
vn -0.5252 -0.8498 0.0460
vn -0.5233 -0.8466 0.0969
vn 0.6349 -0.7696 -0.0674
vn 0.3039 -0.9527 0.0000
vn 0.3313 -0.9435 0.0000
vn -0.0576 -0.9892 0.1349
vn 0.2289 -0.9697 0.0849
vn 0.5780 -0.8115 0.0862
vn 0.0000 1.0000 0.0000
vn 0.0000 0.0000 1.0000
vn -1.0000 0.0000 0.0000
vn 0.0000 -1.0000 0.0000
vn 1.0000 0.0000 0.0000
vn 0.0000 0.0000 -1.0000
usemtl Material
s off
f 1/1/1 14/2/1 13/3/1
f 2/4/2 14/5/2 16/6/2
f 1/7/3 13/8/3 18/9/3
f 1/10/4 18/11/4 20/12/4
f 1/13/5 20/14/5 17/15/5
f 2/4/6 16/6/6 23/16/6
f 3/17/7 15/18/7 25/19/7
f 4/20/8 19/21/8 27/22/8
f 5/23/9 21/24/9 29/25/9
f 6/26/10 22/27/10 31/28/10
f 2/4/11 23/16/11 26/29/11
f 3/17/12 25/19/12 28/30/12
f 4/20/13 27/22/13 30/31/13
f 5/23/14 29/25/14 32/32/14
f 6/26/15 31/28/15 24/33/15
f 7/34/16 33/35/16 38/36/16
f 8/37/17 34/38/17 40/39/17
f 9/40/18 35/41/18 41/42/18
f 10/43/19 36/44/19 42/45/19
f 11/46/20 37/47/20 39/48/20
f 39/48/21 42/49/21 12/50/21
f 39/48/22 37/47/22 42/49/22
f 37/47/23 10/43/23 42/49/23
f 42/45/24 41/51/24 12/52/24
f 42/45/25 36/44/25 41/51/25
f 36/44/26 9/40/26 41/51/26
f 41/42/27 40/53/27 12/54/27
f 41/42/28 35/41/28 40/53/28
f 35/41/29 8/55/29 40/53/29
f 40/39/30 38/56/30 12/57/30
f 40/39/31 34/38/31 38/56/31
f 34/38/32 7/34/32 38/56/32
f 38/36/33 39/58/33 12/59/33
f 38/36/34 33/35/34 39/58/34
f 33/35/35 11/46/35 39/58/35
f 24/33/36 37/47/36 11/46/36
f 24/33/37 31/28/37 37/47/37
f 31/28/38 10/43/38 37/47/38
f 32/32/39 36/44/39 10/43/39
f 32/32/40 29/25/40 36/44/40
f 29/25/41 9/40/41 36/44/41
f 30/31/42 35/41/42 9/40/42
f 30/31/43 27/22/43 35/41/43
f 27/22/44 8/55/44 35/41/44
f 28/30/45 34/38/45 8/37/45
f 28/30/46 25/19/46 34/38/46
f 25/19/47 7/34/47 34/38/47
f 26/29/48 33/35/48 7/34/48
f 26/29/49 23/16/49 33/35/49
f 23/16/50 11/46/50 33/35/50
f 31/28/51 32/32/51 10/43/51
f 31/28/52 22/27/52 32/32/52
f 22/27/53 5/23/53 32/32/53
f 29/25/54 30/31/54 9/40/54
f 29/25/55 21/24/55 30/31/55
f 21/24/56 4/20/56 30/31/56
f 27/22/57 28/60/57 8/55/57
f 27/22/58 19/21/58 28/60/58
f 19/21/59 3/61/59 28/60/59
f 25/19/60 26/29/60 7/34/60
f 25/19/61 15/18/61 26/29/61
f 15/18/62 2/4/62 26/29/62
f 23/16/63 24/33/63 11/46/63
f 23/16/64 16/6/64 24/33/64
f 16/6/65 6/26/65 24/33/65
f 17/15/66 22/27/66 6/26/66
f 17/15/67 20/14/67 22/27/67
f 20/14/68 5/23/68 22/27/68
f 20/12/69 21/24/69 5/23/69
f 20/12/70 18/11/70 21/24/70
f 18/11/71 4/20/71 21/24/71
f 18/9/72 19/21/72 4/20/72
f 18/9/73 13/8/73 19/21/73
f 13/8/74 3/61/74 19/21/74
f 16/6/75 17/62/75 6/26/75
f 16/6/76 14/5/76 17/62/76
f 14/5/77 1/63/77 17/62/77
f 13/3/78 15/18/78 3/17/78
f 13/3/79 14/2/79 15/18/79
f 14/2/80 2/4/80 15/18/80
f 43/64/81 47/65/81 49/66/81 45/67/81
f 46/68/82 45/67/82 49/66/82 50/69/82
f 50/69/83 49/66/83 47/65/83 48/70/83
f 48/70/84 44/71/84 46/68/84 50/69/84
f 44/71/85 43/64/85 45/67/85 46/68/85
f 48/70/86 47/65/86 43/64/86 44/71/86
f 51/72/81 55/73/81 57/74/81 53/75/81
f 54/76/82 53/75/82 57/74/82 58/77/82
f 58/77/83 57/74/83 55/73/83 56/78/83
f 56/78/84 52/79/84 54/76/84 58/77/84
f 52/79/85 51/72/85 53/75/85 54/76/85
f 56/78/86 55/73/86 51/72/86 52/79/86
