# Blender v2.81 (sub 16) OBJ File: 'untitled.blend'
# www.blender.org
mtllib shining_cube.mtl
o Куб
v -1.000000 0.015735 1.000000
v -1.000000 2.015735 1.000000
v -1.000000 0.015735 -1.000000
v -1.000000 2.015735 -1.000000
v 1.000000 0.015735 1.000000
v 1.000000 2.015735 1.000000
v 1.000000 0.015735 -1.000000
v 1.000000 2.015735 -1.000000
v -1.000000 0.415735 1.000000
v -1.000000 0.815735 1.000000
v -1.000000 1.215735 1.000000
v -1.000000 1.615735 1.000000
v -1.000000 1.615735 -1.000000
v -1.000000 1.215735 -1.000000
v -1.000000 0.815735 -1.000000
v -1.000000 0.415735 -1.000000
v 1.000000 1.615735 -1.000000
v 1.000000 1.215735 -1.000000
v 1.000000 0.815735 -1.000000
v 1.000000 0.415735 -1.000000
v 1.000000 1.615735 1.000000
v 1.000000 1.215735 1.000000
v 1.000000 0.815735 1.000000
v 1.000000 0.415735 1.000000
vt 0.375000 0.250000
vt 0.425000 0.250000
vt 0.475000 0.250000
vt 0.475000 0.500000
vt 0.425000 0.500000
vt 0.375000 0.500000
vt 0.375000 0.750000
vt 0.425000 0.750000
vt 0.475000 0.750000
vt 0.475000 1.000000
vt 0.425000 1.000000
vt 0.375000 1.000000
vt 0.375000 0.000000
vt 0.425000 0.000000
vt 0.475000 0.000000
vt 0.125000 0.500000
vt 0.125000 0.750000
vt 0.625000 0.500000
vt 0.875000 0.500000
vt 0.875000 0.750000
vt 0.625000 0.750000
vt 0.575000 0.750000
vt 0.625000 1.000000
vt 0.575000 1.000000
vt 0.525000 1.000000
vt 0.525000 0.750000
vt 0.575000 0.500000
vt 0.525000 0.500000
vt 0.575000 0.250000
vt 0.625000 0.250000
vt 0.525000 0.250000
vt 0.575000 0.000000
vt 0.625000 0.000000
vt 0.525000 0.000000
vn 0.0000 0.0000 -1.0000
vn 0.0000 0.0000 1.0000
vn -1.0000 0.0000 0.0000
vn 0.0000 -1.0000 0.0000
vn 0.0000 1.0000 0.0000
vn 1.0000 0.0000 0.0000
usemtl Материал
s off
f 3/1/1 16/2/1 15/3/1 19/4/1 20/5/1 7/6/1
f 5/7/2 24/8/2 23/9/2 10/10/2 9/11/2 1/12/2
f 1/13/3 9/14/3 10/15/3 15/3/3 16/2/3 3/1/3
f 3/16/4 7/6/4 5/7/4 1/17/4
f 8/18/5 4/19/5 2/20/5 6/21/5
f 21/22/2 6/21/2 2/23/2 12/24/2 11/25/2 22/26/2
f 17/27/6 8/18/6 6/21/6 21/22/6 22/26/6 18/28/6
f 13/29/1 4/30/1 8/18/1 17/27/1 18/28/1 14/31/1
f 12/32/3 2/33/3 4/30/3 13/29/3 14/31/3 11/34/3
f 7/6/6 20/5/6 19/4/6 23/9/6 24/8/6 5/7/6
usemtl Материал.001
f 23/9/2 22/26/2 11/25/2 10/10/2
f 19/4/6 18/28/6 22/26/6 23/9/6
f 15/3/1 14/31/1 18/28/1 19/4/1
f 10/15/3 11/34/3 14/31/3 15/3/3
