# Blender v2.81 (sub 16) OBJ File: 'untitled.blend'
# www.blender.org
mtllib high_tower.mtl
o Икосфера
v -0.000000 0.666700 0.000000
v 0.720713 8.069649 0.523623
v -0.275283 8.069643 0.847247
v -0.890849 8.069727 -0.000000
v -0.275283 8.069643 -0.847247
v 0.720713 8.069649 -0.523623
v 0.276388 16.271391 0.850649
v -0.723607 16.271389 0.525725
v -0.723607 16.271389 -0.525725
v 0.276388 16.271391 -0.850649
v 0.894426 16.271366 0.000000
v 0.892006 20.462181 -0.000000
v -0.249597 1.837357 0.768192
v 0.653465 1.837357 0.474765
v 0.261817 6.562469 0.805776
v 0.847245 6.562502 -0.000000
v 0.653465 1.837357 -0.474765
v -0.807731 1.837401 -0.000000
v -0.685437 6.562498 0.497997
v -0.249597 1.837357 -0.768192
v -0.685437 6.562498 -0.497997
v 0.261817 6.562469 -0.805776
v 0.616542 13.753060 0.200323
v 0.616542 13.753060 -0.200323
v 0.000000 13.753060 0.648269
v 0.381044 13.753060 0.524461
v -0.616541 13.753060 0.200323
v -0.381043 13.753060 0.524461
v -0.381043 13.753060 -0.524461
v -0.616541 13.753060 -0.200323
v 0.381044 13.753060 -0.524461
v 0.000000 13.753060 -0.648269
v 0.688189 16.752506 0.499997
v -0.262869 16.752516 0.809012
v -0.850648 16.752504 0.000000
v -0.262869 16.752516 -0.809012
v 0.688189 16.752506 -0.499997
v 0.206253 18.882030 0.634790
v 0.667463 18.882030 -0.000000
v -0.539986 18.882030 0.392319
v -0.539986 18.882030 -0.392319
v 0.206253 18.882030 -0.634790
v 2.744043 19.981228 -0.000000
v 0.634036 21.181740 -0.000000
v 0.847938 19.981234 2.609719
v -2.219963 19.981234 1.612881
v -2.219963 19.981234 -1.612881
v 0.847938 19.981234 -2.609719
v 0.634036 21.698532 -0.000000
v 0.275639 20.462185 0.848342
v -0.721644 20.462185 0.524300
v -0.721644 20.462185 -0.524300
v 0.275639 20.462185 -0.848342
v 0.849387 22.218477 -0.000000
v 0.195923 21.181742 0.602999
v -0.512943 21.181742 0.372671
v -0.512943 21.181742 -0.372671
v 0.195923 21.181742 -0.602999
v 0.195924 21.698534 0.602999
v -0.512943 21.698534 0.372671
v -0.512943 21.698534 -0.372671
v 0.195924 21.698534 -0.602999
v 2.996181 23.731316 0.000000
v 0.262470 22.218479 0.807808
v -0.687164 22.218479 0.499249
v -0.687164 22.218479 -0.499249
v 0.262470 22.218479 -0.807808
v 1.108292 22.943584 -0.000000
v 1.612100 24.657131 0.000000
v 0.342474 22.943588 1.054040
v -0.896621 22.943588 0.651427
v -0.896621 22.943588 -0.651427
v 0.342474 22.943588 -1.054040
v 0.925853 23.731325 2.849514
v -2.423944 23.731325 1.761082
v -2.423944 23.731325 -1.761081
v 0.925853 23.731325 -2.849515
v 0.000003 24.859377 0.000000
v 0.498157 24.657135 1.533185
v -1.304206 24.657135 0.947552
v -1.304206 24.657135 -0.947552
v 0.498157 24.657135 -1.533185
vt 0.818181 0.000000
vt 0.772726 0.078731
vt 0.863635 0.078731
vt 0.727272 0.157461
vt 0.681818 0.078731
vt 0.636363 0.157461
vt 0.090909 0.000000
vt 0.045454 0.078731
vt 0.136363 0.078731
vt 0.272727 0.000000
vt 0.227273 0.078731
vt 0.318182 0.078731
vt 0.454545 0.000000
vt 0.409090 0.078731
vt 0.500000 0.078731
vt 0.681818 0.236191
vt 0.909090 0.157461
vt 0.818181 0.157461
vt 0.863635 0.236191
vt 0.181818 0.157461
vt 0.090909 0.157461
vt 0.136363 0.236191
vt 0.363636 0.157461
vt 0.272727 0.157461
vt 0.318182 0.236191
vt 0.545454 0.157461
vt 0.454545 0.157461
vt 0.500000 0.236191
vt 0.772726 0.236191
vt 0.954545 0.236191
vt 0.227273 0.236191
vt 0.409090 0.236191
vt 0.590909 0.236191
vt 0.818181 0.314921
vt 0.727272 0.314921
vt 0.772726 0.393651
vt 1.000000 0.314921
vt 0.909091 0.314921
vt 0.954545 0.393651
vt 0.272727 0.314921
vt 0.181818 0.314921
vt 0.227273 0.393651
vt 0.454545 0.314921
vt 0.363636 0.314921
vt 0.409090 0.393651
vt 0.636363 0.314921
vt 0.545454 0.314921
vt 0.590909 0.393651
vt 0.863635 0.393651
vt 0.863635 0.393651
vt 0.954545 0.393651
vt 0.500000 0.393651
vt 0.500000 0.393651
vt 0.590909 0.393651
vt 0.318182 0.393651
vt 0.136363 0.393651
vt 0.136363 0.393651
vt 0.227273 0.393651
vt 0.090909 0.314921
vt 0.681818 0.393651
vt 0.681818 0.393651
vt 0.772726 0.393651
vt 0.318182 0.393651
vt 0.409090 0.393651
vt 0.045454 0.236191
vt 0.000000 0.157461
vt 0.590909 0.078731
vt 0.636363 0.000000
vt 0.318182 0.393651
vt 0.409090 0.393651
vt 0.863635 0.393651
vt 0.954545 0.393651
vt 0.500000 0.393651
vt 0.590909 0.393651
vt 0.136363 0.393651
vt 0.227273 0.393651
vt 0.681818 0.393651
vt 0.772726 0.393651
vt 0.500000 0.393651
vt 0.590909 0.393651
vt 0.136363 0.393651
vt 0.227273 0.393651
vt 0.681818 0.393651
vt 0.772726 0.393651
vt 0.318182 0.393651
vt 0.409090 0.393651
vt 0.863635 0.393651
vt 0.954545 0.393651
vt 0.318182 0.393651
vt 0.409090 0.393651
vt 0.863635 0.393651
vt 0.954545 0.393651
vt 0.500000 0.393651
vt 0.590909 0.393651
vt 0.136363 0.393651
vt 0.227273 0.393651
vt 0.681818 0.393651
vt 0.772726 0.393651
vt 0.136363 0.393651
vt 0.227273 0.393651
vt 0.681818 0.393651
vt 0.772726 0.393651
vt 0.318182 0.393651
vt 0.409090 0.393651
vt 0.863635 0.393651
vt 0.954545 0.393651
vt 0.500000 0.393651
vt 0.590909 0.393651
vt 0.318182 0.393651
vt 0.409090 0.393651
vt 0.863635 0.393651
vt 0.954545 0.393651
vt 0.500000 0.393651
vt 0.590909 0.393651
vt 0.136363 0.393651
vt 0.227273 0.393651
vt 0.681818 0.393651
vt 0.772726 0.393651
vt 0.136363 0.393651
vt 0.227273 0.393651
vt 0.681818 0.393651
vt 0.772726 0.393651
vt 0.318182 0.393651
vt 0.409090 0.393651
vt 0.863635 0.393651
vt 0.954545 0.393651
vt 0.500000 0.393651
vt 0.590909 0.393651
vt 0.863635 0.393651
vt 0.954545 0.393651
vt 0.500000 0.393651
vt 0.590909 0.393651
vt 0.136363 0.393651
vt 0.227273 0.393651
vt 0.681818 0.393651
vt 0.772726 0.393651
vt 0.318182 0.393651
vt 0.409090 0.393651
vt 0.545454 0.472382
vt 0.363636 0.472382
vt 0.181818 0.472382
vt 0.909090 0.472382
vt 0.727272 0.472382
vn 0.2698 -0.4874 0.8304
vn 0.9631 -0.0125 0.2687
vn -0.7064 -0.4874 0.5132
vn -0.7064 -0.4874 -0.5132
vn 0.2698 -0.4874 -0.8304
vn 0.9867 0.0272 0.1602
vn 0.1526 0.0272 0.9879
vn -0.8924 0.0272 0.4504
vn -0.7041 0.0272 -0.7096
vn 0.4572 0.0272 -0.8889
vn 0.8081 0.0482 0.5871
vn -0.3087 0.0482 0.9500
vn -0.9988 0.0482 0.0000
vn -0.3087 0.0482 -0.9500
vn 0.8081 0.0482 -0.5871
vn 0.5886 0.0823 0.8042
vn -0.5830 0.0823 0.8083
vn -0.9489 0.0823 -0.3046
vn -0.0035 0.0823 -0.9966
vn 0.9467 0.0823 -0.3113
vn -0.1692 -0.8368 0.5207
vn 0.8005 0.1444 -0.5816
vn 0.5886 0.0823 -0.8042
vn 0.4429 -0.8368 -0.3218
vn -0.3058 0.1444 -0.9411
vn -0.5830 0.0823 -0.8083
vn -0.5475 -0.8368 0.0000
vn -0.9895 0.1444 0.0000
vn -0.9489 0.0823 0.3046
vn 0.4429 -0.8368 0.3218
vn -0.3058 0.1444 0.9411
vn -0.0035 0.0823 0.9966
vn -0.1692 -0.8368 -0.5207
vn 0.8005 0.1444 0.5816
vn 0.9467 0.0823 0.3113
vn 0.8990 -0.0647 -0.4331
vn 0.8066 -0.0778 -0.5860
vn 0.6897 -0.0647 -0.7212
vn -0.1341 -0.0647 -0.9888
vn -0.3081 -0.0778 -0.9482
vn -0.4727 -0.0647 -0.8788
vn -0.9819 -0.0647 -0.1780
vn -0.9970 -0.0778 0.0000
vn -0.9819 -0.0647 0.1780
vn -0.4727 -0.0647 0.8788
vn -0.3081 -0.0778 0.9482
vn -0.1341 -0.0647 0.9888
vn 0.6897 -0.0647 0.7212
vn 0.8066 -0.0778 0.5860
vn 0.8990 -0.0647 0.4331
vn 0.3072 -0.1097 -0.9453
vn 0.3089 0.0321 -0.9506
vn 0.1526 0.0272 -0.9879
vn -0.8041 -0.1097 -0.5842
vn -0.8086 0.0321 -0.5875
vn -0.8924 0.0272 -0.4504
vn -0.8041 -0.1097 0.5842
vn -0.8086 0.0321 0.5875
vn -0.7041 0.0272 0.7096
vn 0.3072 -0.1097 0.9453
vn 0.3089 0.0321 0.9506
vn 0.4572 0.0272 0.8889
vn 0.9940 -0.1097 0.0000
vn 0.9995 0.0321 0.0000
vn 0.9867 0.0272 -0.1602
vn 0.5532 -0.0125 -0.8330
vn 0.3088 -0.0410 -0.9503
vn 0.0421 -0.0125 -0.9990
vn -0.6212 -0.0125 -0.7835
vn -0.8083 -0.0410 -0.5873
vn -0.9371 -0.0125 -0.3487
vn -0.9371 -0.0125 0.3487
vn -0.8083 -0.0410 0.5873
vn -0.6212 -0.0125 0.7835
vn 0.9631 -0.0125 -0.2687
vn 0.9992 -0.0410 0.0000
vn 0.8732 -0.4874 0.0000
vn 0.0421 -0.0125 0.9990
vn 0.3088 -0.0410 0.9503
vn 0.5532 -0.0125 0.8330
vn -0.0944 0.9521 -0.2907
vn -0.0944 0.9521 0.2907
vn 0.2473 0.9521 -0.1796
vn -0.3056 0.9521 0.0000
vn 0.2473 0.9521 0.1796
vn 0.7770 0.2786 -0.5645
vn -0.9604 0.2786 0.0000
vn 0.7770 0.2786 0.5645
vn -0.2968 0.2786 -0.9134
vn -0.2968 0.2786 0.9134
vn -0.3090 0.0000 -0.9511
vn -0.3090 0.0000 0.9511
vn 0.8090 -0.0000 -0.5878
vn -1.0000 0.0000 0.0000
vn 0.8090 -0.0000 0.5878
vn -0.9482 -0.3177 0.0000
vn 0.7671 -0.3177 0.5573
vn -0.2930 -0.3177 -0.9018
vn -0.2930 -0.3177 0.9018
vn 0.7671 -0.3177 -0.5573
vn -0.2969 -0.2775 -0.9137
vn -0.2969 -0.2775 0.9137
vn 0.7772 -0.2775 -0.5647
vn -0.9607 -0.2775 0.0000
vn 0.7772 -0.2775 0.5647
vn -0.4584 -0.8888 0.0000
vn 0.3708 -0.8888 0.2694
vn -0.1417 -0.8888 -0.4360
vn -0.1417 -0.8888 0.4360
vn 0.3708 -0.8888 -0.2694
vn -0.1969 0.7707 0.6060
vn 0.5155 0.7707 -0.3745
vn -0.6372 0.7707 0.0000
vn 0.5155 0.7707 0.3745
vn -0.1969 0.7707 -0.6060
vn 0.1240 0.9882 -0.0901
vn -0.0474 0.9882 -0.1457
vn -0.1532 0.9882 0.0000
vn -0.0474 0.9882 0.1457
vn 0.1240 0.9882 0.0901
usemtl Material
s off
f 1/1/1 14/2/1 13/3/1
f 2/4/2 14/5/2 16/6/2
f 1/7/3 13/8/3 18/9/3
f 1/10/4 18/11/4 20/12/4
f 1/13/5 20/14/5 17/15/5
f 2/4/6 16/6/6 23/16/6
f 3/17/7 15/18/7 25/19/7
f 4/20/8 19/21/8 27/22/8
f 5/23/9 21/24/9 29/25/9
f 6/26/10 22/27/10 31/28/10
f 2/4/11 23/16/11 26/29/11
f 3/17/12 25/19/12 28/30/12
f 4/20/13 27/22/13 30/31/13
f 5/23/14 29/25/14 32/32/14
f 6/26/15 31/28/15 24/33/15
f 7/34/16 33/35/16 38/36/16
f 8/37/17 34/38/17 40/39/17
f 9/40/18 35/41/18 41/42/18
f 10/43/19 36/44/19 42/45/19
f 11/46/20 37/47/20 39/48/20
f 40/39/21 38/49/21 45/50/21 46/51/21
f 39/48/22 37/47/22 42/52/22
f 37/47/23 10/43/23 42/52/23
f 39/48/24 42/52/24 48/53/24 43/54/24
f 42/45/25 36/44/25 41/55/25
f 36/44/26 9/40/26 41/55/26
f 41/42/27 40/56/27 46/57/27 47/58/27
f 41/42/28 35/41/28 40/56/28
f 35/41/29 8/59/29 40/56/29
f 38/36/30 39/60/30 43/61/30 45/62/30
f 40/39/31 34/38/31 38/49/31
f 34/38/32 7/34/32 38/49/32
f 42/45/33 41/55/33 47/63/33 48/64/33
f 38/36/34 33/35/34 39/60/34
f 33/35/35 11/46/35 39/60/35
f 24/33/36 37/47/36 11/46/36
f 24/33/37 31/28/37 37/47/37
f 31/28/38 10/43/38 37/47/38
f 32/32/39 36/44/39 10/43/39
f 32/32/40 29/25/40 36/44/40
f 29/25/41 9/40/41 36/44/41
f 30/31/42 35/41/42 9/40/42
f 30/31/43 27/22/43 35/41/43
f 27/22/44 8/59/44 35/41/44
f 28/30/45 34/38/45 8/37/45
f 28/30/46 25/19/46 34/38/46
f 25/19/47 7/34/47 34/38/47
f 26/29/48 33/35/48 7/34/48
f 26/29/49 23/16/49 33/35/49
f 23/16/50 11/46/50 33/35/50
f 31/28/51 32/32/51 10/43/51
f 31/28/52 22/27/52 32/32/52
f 22/27/53 5/23/53 32/32/53
f 29/25/54 30/31/54 9/40/54
f 29/25/55 21/24/55 30/31/55
f 21/24/56 4/20/56 30/31/56
f 27/22/57 28/65/57 8/59/57
f 27/22/58 19/21/58 28/65/58
f 19/21/59 3/66/59 28/65/59
f 25/19/60 26/29/60 7/34/60
f 25/19/61 15/18/61 26/29/61
f 15/18/62 2/4/62 26/29/62
f 23/16/63 24/33/63 11/46/63
f 23/16/64 16/6/64 24/33/64
f 16/6/65 6/26/65 24/33/65
f 17/15/66 22/27/66 6/26/66
f 17/15/67 20/14/67 22/27/67
f 20/14/68 5/23/68 22/27/68
f 20/12/69 21/24/69 5/23/69
f 20/12/70 18/11/70 21/24/70
f 18/11/71 4/20/71 21/24/71
f 18/9/72 19/21/72 4/20/72
f 18/9/73 13/8/73 19/21/73
f 13/8/74 3/66/74 19/21/74
f 16/6/75 17/67/75 6/26/75
f 16/6/76 14/5/76 17/67/76
f 14/5/77 1/68/77 17/67/77
f 13/3/78 15/18/78 3/17/78
f 13/3/79 14/2/79 15/18/79
f 14/2/80 2/4/80 15/18/80
f 48/64/81 47/63/81 52/69/81 53/70/81
f 46/51/82 45/50/82 50/71/82 51/72/82
f 43/54/83 48/53/83 53/73/83 12/74/83
f 47/58/84 46/57/84 51/75/84 52/76/84
f 45/62/85 43/61/85 12/77/85 50/78/85
f 12/74/86 53/73/86 58/79/86 44/80/86
f 52/76/87 51/75/87 56/81/87 57/82/87
f 50/78/88 12/77/88 44/83/88 55/84/88
f 53/70/89 52/69/89 57/85/89 58/86/89
f 51/72/90 50/71/90 55/87/90 56/88/90
f 58/86/91 57/85/91 61/89/91 62/90/91
f 56/88/92 55/87/92 59/91/92 60/92/92
f 44/80/93 58/79/93 62/93/93 49/94/93
f 57/82/94 56/81/94 60/95/94 61/96/94
f 55/84/95 44/83/95 49/97/95 59/98/95
f 61/96/96 60/95/96 65/99/96 66/100/96
f 59/98/97 49/97/97 54/101/97 64/102/97
f 62/90/98 61/89/98 66/103/98 67/104/98
f 60/92/99 59/91/99 64/105/99 65/106/99
f 49/94/100 62/93/100 67/107/100 54/108/100
f 67/104/101 66/103/101 72/109/101 73/110/101
f 65/106/102 64/105/102 70/111/102 71/112/102
f 54/108/103 67/107/103 73/113/103 68/114/103
f 66/100/104 65/99/104 71/115/104 72/116/104
f 64/102/105 54/101/105 68/117/105 70/118/105
f 72/116/106 71/115/106 75/119/106 76/120/106
f 70/118/107 68/117/107 63/121/107 74/122/107
f 73/110/108 72/109/108 76/123/108 77/124/108
f 71/112/109 70/111/109 74/125/109 75/126/109
f 68/114/110 73/113/110 77/127/110 63/128/110
f 75/126/111 74/125/111 79/129/111 80/130/111
f 63/128/112 77/127/112 82/131/112 69/132/112
f 76/120/113 75/119/113 80/133/113 81/134/113
f 74/122/114 63/121/114 69/135/114 79/136/114
f 77/124/115 76/123/115 81/137/115 82/138/115
f 69/132/116 82/131/116 78/139/116
f 82/138/117 81/137/117 78/140/117
f 81/134/118 80/133/118 78/141/118
f 80/130/119 79/129/119 78/142/119
f 79/136/120 69/135/120 78/143/120
